<svg xmlns="http://www.w3.org/2000/svg" width="512" height="512" style=""><rect id="backgroundrect" width="100%" height="100%" x="0" y="0" fill="none" stroke="none"/><!-- Font Awesome Free 5.15.2 by @fontawesome - https://fontawesome.com License - https://fontawesome.com/license/free (Icons: CC BY 4.0, Fonts: SIL OFL 1.1, Code: MIT License) --><g class="currentLayer" style=""><title>Layer 1</title><path d="M416,447.4708994626999 h-84 c-6.6,0 -12,-5.4 -12,-12 v-40 c0,-6.6 5.4,-12 12,-12 h84 c17.7,0 32,-14.3 32,-32 V159.4708994626999 c0,-17.7 -14.3,-32 -32,-32 h-84 c-6.6,0 -12,-5.4 -12,-12 V75.47089946269989 c0,-6.6 5.4,-12 12,-12 h84 c53,0 96,43 96,96 v192 c0,53 -43,96 -96,96 zm-47,-201 L201,78.47089946269989 c-15,-15 -41,-4.5 -41,17 v96 H24 c-13.3,0 -24,10.7 -24,24 v96 c0,13.3 10.7,24 24,24 h136 v96 c0,21.5 26,32 41,17 l168,-168 c9.3,-9.4 9.3,-24.6 0,-34 z" id="svg_1" class="selected" fill="#ffffff" fill-opacity="1"/></g></svg>