<svg id="Camada_1" data-name="Camada 1" xmlns="http://www.w3.org/2000/svg" viewBox="0 0 331.34 305.46"><defs><style>.cls-1{fill:#fff;}</style></defs><title>branca</title><polygon class="cls-1" points="55.3 219.54 0.16 219.54 0.16 228.88 23.06 228.88 23.06 304.82 32.4 304.82 32.4 228.88 55.3 228.88 55.3 219.54"/><path class="cls-1" d="M198.81,371.4a30.54,30.54,0,0,0-22.55,9.47,32.81,32.81,0,0,0,0,45.73,31.46,31.46,0,0,0,45,0,32.78,32.78,0,0,0,0-45.73A30.41,30.41,0,0,0,198.81,371.4Zm15.71,48.43a21.82,21.82,0,0,1-31.48,0,23.07,23.07,0,0,1,0-32.19,21.79,21.79,0,0,1,31.48,0,23.2,23.2,0,0,1,0,32.19Z" transform="translate(-118 -130.6)"/><polygon class="cls-1" points="185.24 241.44 170.11 288.17 157.15 247.93 148.27 247.93 135.3 288.17 120.23 241.44 110.42 241.44 130.86 304.82 139.74 304.82 152.71 264.57 165.67 304.82 174.55 304.82 195.05 241.44 185.24 241.44"/><path class="cls-1" d="M343.94,371.4a30.54,30.54,0,0,0-22.55,9.47,32.81,32.81,0,0,0,0,45.73,31.51,31.51,0,0,0,39,4.79,31.59,31.59,0,0,0,11.74-12.79l-8.53-4.33a22.76,22.76,0,0,1-8.17,9,21.58,21.58,0,0,1-11.51,3.27,21.35,21.35,0,0,1-14.14-5.14,22.29,22.29,0,0,1-7.71-12.85h53.57v-4.79a31.61,31.61,0,0,0-9.29-22.89A30.41,30.41,0,0,0,343.94,371.4ZM322.09,399a22.29,22.29,0,0,1,7.71-12.85,21.66,21.66,0,0,1,28.16,0A22.29,22.29,0,0,1,365.67,399Z" transform="translate(-118 -130.6)"/><path class="cls-1" d="M410.16,372.05h-.58q-11.38,0-19.74,9.63v-9.63h-9.35v63.37h9.35V404.87a27.64,27.64,0,0,1,5.78-16.94,18,18,0,0,1,14-6.54h.58Z" transform="translate(-118 -130.6)"/><path class="cls-1" d="M429.49,380.92a10.56,10.56,0,0,1,7.24,2.69,8.19,8.19,0,0,1,3,6.37h9.52a17.5,17.5,0,0,0-5.78-13.14,20.63,20.63,0,0,0-27.92,0A17.47,17.47,0,0,0,409.75,390q0,8.64,6.31,13.26,3.62,2.68,12.09,5c4.51,1.25,7.49,2.39,8.93,3.45q2.63,1.86,2.63,5.84a8.17,8.17,0,0,1-3,6.36,11.28,11.28,0,0,1-14.48,0,8.17,8.17,0,0,1-3-6.36h-9.52a17.28,17.28,0,0,0,5.78,13.08,20.66,20.66,0,0,0,27.92,0,17.32,17.32,0,0,0,5.78-13.08q0-8.76-6.31-13.44-3.68-2.69-12.21-5.08-6.7-1.81-8.81-3.33a6.52,6.52,0,0,1-2.63-5.72,8.19,8.19,0,0,1,3-6.37A10.56,10.56,0,0,1,429.49,380.92Z" transform="translate(-118 -130.6)"/><polygon class="cls-1" points="150.61 0 120.48 0 120.49 150.62 90.37 150.62 90.37 75.31 60.24 75.31 60.24 150.62 30.13 150.62 30.13 0 0 0 0 180.75 150.61 180.75 150.61 0"/><polygon class="cls-1" points="180.73 104.3 301.23 104.3 301.23 150.62 210.86 150.62 210.85 150.62 210.85 120.62 180.74 120.62 180.73 180.75 331.34 180.75 331.34 74.19 210.86 74.19 210.86 30.13 301.23 30.13 301.23 60.25 331.34 60.25 331.34 0.01 180.73 0.01 180.73 104.3"/></svg>