<svg id="Camada_1" data-name="Camada 1" xmlns="http://www.w3.org/2000/svg" viewBox="0 0 326.17 388.7"><defs><style>.cls-1{fill:#1d1d1b;}.cls-2{fill:#0091d3;}</style></defs><title>logo_training</title><polygon class="cls-1" points="54.44 216.11 0.16 216.11 0.16 225.31 22.7 225.31 22.7 300.06 31.9 300.06 31.9 225.31 54.44 225.31 54.44 216.11"/><path class="cls-1" d="M189.09,347.32a30.05,30.05,0,0,0-22.19,9.32,32.29,32.29,0,0,0,0,45,31,31,0,0,0,44.27,0,32.29,32.29,0,0,0,0-45A29.92,29.92,0,0,0,189.09,347.32ZM204.56,395a21.47,21.47,0,0,1-31,0,22.7,22.7,0,0,1,0-31.68,21.44,21.44,0,0,1,31,0,22.85,22.85,0,0,1,0,31.68Z" transform="translate(-109.54 -110.28)"/><polygon class="cls-1" points="182.35 237.68 167.46 283.68 154.7 244.06 145.96 244.06 133.19 283.68 118.36 237.68 108.7 237.68 128.82 300.06 137.56 300.06 150.32 260.44 163.09 300.06 171.83 300.06 192.01 237.68 182.35 237.68"/><path class="cls-1" d="M332,347.32a30.09,30.09,0,0,0-22.2,9.32,32.29,32.29,0,0,0,0,45,31,31,0,0,0,38.41,4.71,31,31,0,0,0,11.56-12.59l-8.4-4.26a22.37,22.37,0,0,1-8.05,8.86A21.6,21.6,0,0,1,318,396.54a22,22,0,0,1-7.59-12.65h52.73v-4.71A31.12,31.12,0,0,0,354,356.64,30,30,0,0,0,332,347.32Zm-21.51,27.14A22,22,0,0,1,318,361.81a21.32,21.32,0,0,1,27.72,0,22,22,0,0,1,7.59,12.65Z" transform="translate(-109.54 -110.28)"/><path class="cls-1" d="M397.15,348h-.57q-11.22,0-19.44,9.49V348h-9.2v62.39h9.2V380.27a27.21,27.21,0,0,1,5.69-16.68,17.73,17.73,0,0,1,13.75-6.44h.57Z" transform="translate(-109.54 -110.28)"/><path class="cls-1" d="M416.17,356.69a10.41,10.41,0,0,1,7.13,2.65,8,8,0,0,1,2.93,6.27h9.38a17.2,17.2,0,0,0-5.7-12.94,20.32,20.32,0,0,0-27.48,0,17.22,17.22,0,0,0-5.69,12.94q0,8.5,6.21,13.05,3.56,2.64,11.9,4.94,6.67,1.84,8.8,3.4,2.58,1.83,2.58,5.75A8,8,0,0,1,423.3,399,11.11,11.11,0,0,1,409,399a8.06,8.06,0,0,1-2.93-6.26h-9.37a17,17,0,0,0,5.69,12.87,20.32,20.32,0,0,0,27.48,0,17,17,0,0,0,5.7-12.87q0-8.62-6.21-13.23-3.63-2.64-12-5-6.61-1.78-8.68-3.28a6.43,6.43,0,0,1-2.59-5.63,8.06,8.06,0,0,1,2.93-6.27A10.43,10.43,0,0,1,416.17,356.69Z" transform="translate(-109.54 -110.28)"/><polygon class="cls-2" points="148.26 0 118.6 0 118.61 148.27 88.96 148.27 88.96 74.14 59.3 74.14 59.3 148.27 29.66 148.27 29.66 0 0 0 0 177.93 148.26 177.93 148.26 0"/><polygon class="cls-2" points="177.91 102.67 296.53 102.67 296.53 148.27 207.57 148.27 207.56 148.27 207.56 118.74 177.92 118.74 177.91 177.93 326.17 177.93 326.17 73.03 207.57 73.03 207.57 29.66 296.53 29.66 296.53 59.31 326.17 59.31 326.17 0.01 177.91 0.01 177.91 102.67"/><path class="cls-2" d="M191.19,482.5V447.78H183V442.5h8.16V428.18h6V442.5h9.2v5.28h-9.2V482.5Z" transform="translate(-109.54 -110.28)"/><path class="cls-2" d="M232.15,441.86v6h-.72a12.81,12.81,0,0,0-10.56,5.2A18.77,18.77,0,0,0,217,464.9v17.6h-6v-40h6v9.84a15.17,15.17,0,0,1,14.72-10.48Z" transform="translate(-109.54 -110.28)"/><path class="cls-2" d="M266.87,476.1q-4.8,7-14.32,7a18.12,18.12,0,0,1-14.08-6,22.94,22.94,0,0,1,0-29.28q5.43-6,14.48-6T266.87,449V442.5h6v40h-6Zm-13.52,1.6a12.66,12.66,0,0,0,10.24-4.48,17.76,17.76,0,0,0,0-21.44,12.66,12.66,0,0,0-10.24-4.48,13.26,13.26,0,0,0-10.4,4.48,17.16,17.16,0,0,0,0,21.44A13.26,13.26,0,0,0,253.35,477.7Z" transform="translate(-109.54 -110.28)"/><path class="cls-2" d="M287.59,427.94v7.84h-6.48v-7.84Zm-6.24,14.56h6v40h-6Z" transform="translate(-109.54 -110.28)"/><path class="cls-2" d="M301.83,442.5v6.24a19.87,19.87,0,0,1,5.28-4.88,12.89,12.89,0,0,1,7.11-2,19,19,0,0,1,6.89,1.12,13.91,13.91,0,0,1,5,3.36q5,4.88,5,12.88V482.5h-6V459.38a12.25,12.25,0,0,0-3.12-8.8,10.65,10.65,0,0,0-8.08-3.28,12,12,0,0,0-8.57,3.36,11.79,11.79,0,0,0-3.51,8.8v23h-6v-40Z" transform="translate(-109.54 -110.28)"/><path class="cls-2" d="M345.42,427.94v7.84h-6.48v-7.84Zm-6.24,14.56h6v40h-6Z" transform="translate(-109.54 -110.28)"/><path class="cls-2" d="M359.66,442.5v6.24a20,20,0,0,1,5.28-4.88,13,13,0,0,1,7.12-2,18.9,18.9,0,0,1,6.88,1.12,14,14,0,0,1,5,3.36q5,4.88,5,12.88V482.5h-6V459.38a12.25,12.25,0,0,0-3.12-8.8,10.63,10.63,0,0,0-8.08-3.28,11.94,11.94,0,0,0-8.56,3.36,11.8,11.8,0,0,0-3.52,8.8v23h-6v-40Z" transform="translate(-109.54 -110.28)"/><path class="cls-2" d="M428.22,448.9v-6.4h6v38.8q0,8.64-4.92,13.16T416.06,499q-8.31,0-13-3.2a15.84,15.84,0,0,1-6.36-8.48h6.64q2.57,6.24,11.68,6.24,7,0,10.08-3.2t3.12-9.44v-5.52q-4.87,7.13-14.32,7.12a18.24,18.24,0,0,1-14.08-5.92,22.28,22.28,0,0,1,0-28.8q5.44-5.92,14.52-5.92T428.22,448.9ZM414.7,477.06a14,14,0,0,0,5.84-1.16,13.34,13.34,0,0,0,4.4-3.16,17.29,17.29,0,0,0,0-21.12,13.16,13.16,0,0,0-10.24-4.32,13.37,13.37,0,0,0-10.4,4.32,16.71,16.71,0,0,0,0,21.12A13.37,13.37,0,0,0,414.7,477.06Z" transform="translate(-109.54 -110.28)"/></svg>