<svg id="Camada_1" data-name="Camada 1" xmlns="http://www.w3.org/2000/svg" viewBox="0 0 326.17 300.69"><defs><style>.cls-1{fill:#1d1d1b;}</style></defs><title>logo_pb</title><polygon class="cls-1" points="54.44 216.11 0.16 216.11 0.16 225.31 22.7 225.31 22.7 300.06 31.9 300.06 31.9 225.31 54.44 225.31 54.44 216.11"/><path class="cls-1" d="M200.13,370a30.05,30.05,0,0,0-22.19,9.32,32.29,32.29,0,0,0,0,45,31,31,0,0,0,44.27,0,32.29,32.29,0,0,0,0-45A29.92,29.92,0,0,0,200.13,370ZM215.6,417.7a21.47,21.47,0,0,1-31,0,22.71,22.71,0,0,1,0-31.69,21.47,21.47,0,0,1,31,0,22.87,22.87,0,0,1,0,31.69Z" transform="translate(-120.58 -132.99)"/><polygon class="cls-1" points="182.35 237.68 167.46 283.68 154.7 244.06 145.96 244.06 133.19 283.68 118.36 237.68 108.7 237.68 128.82 300.06 137.56 300.06 150.32 260.44 163.09 300.06 171.83 300.06 192.01 237.68 182.35 237.68"/><path class="cls-1" d="M343,370a30.09,30.09,0,0,0-22.2,9.32,32.29,32.29,0,0,0,0,45,31,31,0,0,0,38.41,4.71,31,31,0,0,0,11.56-12.59l-8.39-4.26a22.51,22.51,0,0,1-8.05,8.86A21.3,21.3,0,0,1,343,424.31a21.07,21.07,0,0,1-13.92-5.06,22,22,0,0,1-7.58-12.65h52.72v-4.72a31.12,31.12,0,0,0-9.14-22.53A29.92,29.92,0,0,0,343,370Zm-21.5,27.14a21.92,21.92,0,0,1,7.58-12.65,21.32,21.32,0,0,1,27.72,0,21.89,21.89,0,0,1,7.59,12.65Z" transform="translate(-120.58 -132.99)"/><path class="cls-1" d="M408.19,370.66h-.57q-11.22,0-19.44,9.49v-9.49H379v62.39h9.2V403a27.16,27.16,0,0,1,5.7-16.68,17.7,17.7,0,0,1,13.74-6.44h.57Z" transform="translate(-120.58 -132.99)"/><path class="cls-1" d="M427.21,379.4a10.37,10.37,0,0,1,7.13,2.65,8,8,0,0,1,2.94,6.26h9.37A17.22,17.22,0,0,0,441,375.38a20.33,20.33,0,0,0-27.49,0,17.22,17.22,0,0,0-5.69,12.93q0,8.52,6.21,13.06,3.57,2.64,11.9,4.94,6.67,1.85,8.8,3.39a6.6,6.6,0,0,1,2.59,5.75,8,8,0,0,1-2.94,6.27,11.11,11.11,0,0,1-14.26,0,8.06,8.06,0,0,1-2.93-6.27h-9.37a17,17,0,0,0,5.69,12.88,20.33,20.33,0,0,0,27.49,0,17,17,0,0,0,5.69-12.88q0-8.62-6.21-13.22-3.63-2.64-12-5-6.62-1.78-8.68-3.28a6.44,6.44,0,0,1-2.59-5.64,8.06,8.06,0,0,1,2.93-6.26A10.38,10.38,0,0,1,427.21,379.4Z" transform="translate(-120.58 -132.99)"/><polygon class="cls-1" points="148.26 0 118.6 0 118.61 148.27 88.96 148.27 88.96 74.14 59.3 74.14 59.3 148.27 29.66 148.27 29.66 0 0 0 0 177.93 148.26 177.93 148.26 0"/><polygon class="cls-1" points="177.91 102.67 296.53 102.67 296.53 148.27 207.57 148.27 207.56 148.27 207.56 118.74 177.92 118.74 177.91 177.93 326.17 177.93 326.17 73.03 207.57 73.03 207.57 29.66 296.53 29.66 296.53 59.31 326.17 59.31 326.17 0.01 177.91 0.01 177.91 102.67"/></svg>