<svg id="Camada_1" data-name="Camada 1" xmlns="http://www.w3.org/2000/svg" viewBox="0 0 283.26 284.36"><defs><style>.cls-1{fill:#6eaa4c;}</style></defs><title>selo</title><polygon points="95.4 170.68 71.85 170.68 71.85 174.67 81.63 174.67 81.63 207.1 85.62 207.1 85.62 174.67 95.4 174.67 95.4 170.68"/><path d="M148,221.86a13,13,0,0,0-9.63,4,14,14,0,0,0,0,19.53,13.41,13.41,0,0,0,19.21,0,14,14,0,0,0,0-19.53A13,13,0,0,0,148,221.86Zm6.71,20.68a9.31,9.31,0,0,1-13.45,0,9.87,9.87,0,0,1,0-13.75,9.31,9.31,0,0,1,13.45,0,9.92,9.92,0,0,1,0,13.75Z" transform="translate(-41.69 -42.1)"/><polygon points="150.91 180.03 144.45 199.99 138.91 182.8 135.11 182.8 129.57 199.99 123.14 180.03 118.95 180.03 127.68 207.1 131.47 207.1 137.01 189.91 142.55 207.1 146.34 207.1 155.1 180.03 150.91 180.03"/><path d="M210,221.86a13,13,0,0,0-9.63,4,14,14,0,0,0,0,19.53,13.44,13.44,0,0,0,16.67,2,13.48,13.48,0,0,0,5-5.46l-3.64-1.85A9.8,9.8,0,0,1,214.9,244a9.24,9.24,0,0,1-4.92,1.4,9.11,9.11,0,0,1-6-2.2,9.49,9.49,0,0,1-3.29-5.49h22.88v-2a13.48,13.48,0,0,0-4-9.78A13,13,0,0,0,210,221.86Zm-9.33,11.77a9.56,9.56,0,0,1,3.29-5.49,9.26,9.26,0,0,1,12,0,9.5,9.5,0,0,1,3.29,5.49Z" transform="translate(-41.69 -42.1)"/><path d="M238.27,222.13H238a10.83,10.83,0,0,0-8.43,4.12v-4.12h-4V249.2h4v-13a11.74,11.74,0,0,1,2.47-7.23,7.65,7.65,0,0,1,6-2.8h.25Z" transform="translate(-41.69 -42.1)"/><path d="M246.52,225.92a4.56,4.56,0,0,1,3.1,1.15,3.5,3.5,0,0,1,1.27,2.72H255a7.45,7.45,0,0,0-2.47-5.61,8.83,8.83,0,0,0-11.93,0,7.48,7.48,0,0,0-2.47,5.61,6.58,6.58,0,0,0,2.7,5.66A16.38,16.38,0,0,0,246,237.6a13.45,13.45,0,0,1,3.82,1.47,2.85,2.85,0,0,1,1.12,2.5,3.5,3.5,0,0,1-1.27,2.72,4.84,4.84,0,0,1-6.19,0,3.5,3.5,0,0,1-1.27-2.72h-4.07a7.42,7.42,0,0,0,2.47,5.59,8.83,8.83,0,0,0,11.93,0,7.39,7.39,0,0,0,2.47-5.59,6.7,6.7,0,0,0-2.7-5.74,16.84,16.84,0,0,0-5.21-2.17,13.23,13.23,0,0,1-3.77-1.43,2.78,2.78,0,0,1-1.12-2.44,3.5,3.5,0,0,1,1.27-2.72A4.55,4.55,0,0,1,246.52,225.92Z" transform="translate(-41.69 -42.1)"/><polygon class="cls-1" points="136.11 76.9 123.25 76.9 123.25 141.24 110.38 141.24 110.38 109.07 97.51 109.07 97.51 141.24 84.65 141.24 84.65 76.9 71.78 76.9 71.78 154.1 136.11 154.1 136.11 76.9"/><polygon class="cls-1" points="148.98 121.45 200.45 121.45 200.45 141.24 161.85 141.24 161.85 141.24 161.85 128.42 148.98 128.42 148.98 154.1 213.31 154.1 213.31 108.59 161.85 108.59 161.85 89.77 200.45 89.77 200.45 102.63 213.31 102.63 213.31 76.9 148.98 76.9 148.98 121.45"/><path class="cls-1" d="M137,84.25a9.63,9.63,0,0,0-3.35.27,8.28,8.28,0,0,1-2.42.24,1.61,1.61,0,0,1-1.13-1,2,2,0,0,1-.06-1.72,2.63,2.63,0,0,1,1.29-1.4,2.66,2.66,0,0,1,1.89-.23,2,2,0,0,1,1.36,1.06l2.31-1.18A4.51,4.51,0,0,0,134,78a5.34,5.34,0,0,0-6.44,3.29,4.58,4.58,0,0,0,.22,3.72,4,4,0,0,0,3,2.31,10,10,0,0,0,3.33-.27,8,8,0,0,1,2.38-.26,1.64,1.64,0,0,1,1.23,1,2,2,0,0,1,.06,1.73,2.76,2.76,0,0,1-3.18,1.62,2,2,0,0,1-1.36-1.06L131,91.25a4.49,4.49,0,0,0,2.88,2.33,5.3,5.3,0,0,0,6.43-3.29,4.46,4.46,0,0,0-.21-3.7A4,4,0,0,0,137,84.25Z" transform="translate(-41.69 -42.1)"/><path class="cls-1" d="M152.71,80.14a6,6,0,0,0-3.2-3.52,6,6,0,0,0-8.14,3,6.29,6.29,0,0,0,3,8.27,6.1,6.1,0,0,0,8.53-4.11l-2.53-.45a3.28,3.28,0,0,1-2.18,2.37,3.4,3.4,0,0,1-2.16.08,3.35,3.35,0,0,1-1.87-1.38l8.89-3.25Zm-9.34,2a3.52,3.52,0,0,1,.63-2,3.48,3.48,0,0,1,3.85-1.41,3.56,3.56,0,0,1,1.79,1.16Z" transform="translate(-41.69 -42.1)"/><rect class="cls-1" x="154.7" y="69.25" width="2.51" height="16.19" transform="translate(-56.25 0.19) rotate(-14.76)"/><path class="cls-1" d="M169.8,72.11a6.07,6.07,0,0,0-8.56,1.42,6.29,6.29,0,0,0,1.45,8.69,6,6,0,0,0,8.55-1.43,6.29,6.29,0,0,0-1.44-8.68Zm-.65,7.2a3.53,3.53,0,0,1-5,.83,3.66,3.66,0,0,1-1.44-2.39,3.6,3.6,0,0,1,.59-2.73,3.52,3.52,0,0,1,5-.83,3.76,3.76,0,0,1,.85,5.12Z" transform="translate(-41.69 -42.1)"/><polygon class="cls-1" points="139.85 23.35 145.16 39.73 146.76 39.78 153.17 23.79 150.5 23.7 146.13 34.55 142.52 23.44 139.85 23.35"/><path class="cls-1" d="M195.89,80.65a5.84,5.84,0,0,0,4,2.46,6.17,6.17,0,0,0,5.45-2l-2-1.61a3.25,3.25,0,0,1-3.05,1,3.39,3.39,0,0,1-2.9-3.08l9.36,1.44.16-1a6.06,6.06,0,0,0-1.11-4.63,6.07,6.07,0,0,0-8.57-1.32,6.29,6.29,0,0,0-1.34,8.71Zm3.38-7a3.52,3.52,0,0,1,4.06.63,3.65,3.65,0,0,1,1,1.88l-6.6-1A3.57,3.57,0,0,1,199.27,73.68Z" transform="translate(-41.69 -42.1)"/><path class="cls-1" d="M211.57,79.15a3.77,3.77,0,0,1,1.52-2.21,2.83,2.83,0,0,1,2.4-.45l1.22.32.65-2.44-1.23-.32a5.24,5.24,0,0,0-3.27.19l.26-1-2.43-.64-3.12,11.81,2.44.64Z" transform="translate(-41.69 -42.1)"/><path class="cls-1" d="M217.08,85.32a6,6,0,0,0,7.14,3.42l-.37,1,2.41.92L232,75.48l-2.41-.92-1.8,4.73a6,6,0,0,0-7.61-2.19,6.27,6.27,0,0,0-3.13,8.22Zm2.28-3.83a3.65,3.65,0,0,1,1.89-2.06,3.42,3.42,0,0,1,2.75-.1,3.38,3.38,0,0,1,2,1.9,3.74,3.74,0,0,1-1.85,4.84,3.49,3.49,0,0,1-4.71-1.8A3.62,3.62,0,0,1,219.36,81.49Z" transform="translate(-41.69 -42.1)"/><path class="cls-1" d="M230.48,85.83a6,6,0,0,0-.52,4.72,5.85,5.85,0,0,0,2.94,3.68,5.78,5.78,0,0,0,3.13.71,6,6,0,0,0,2.66-.71L237.34,92a3.23,3.23,0,0,1-3.21-.06,3.42,3.42,0,0,1-1.7-3.88l8.33,4.51.5-.93a6,6,0,0,0,.52-4.72,6.05,6.05,0,0,0-7.62-4.14A6,6,0,0,0,230.48,85.83Zm5-.69a3.49,3.49,0,0,1,3.61,2,3.65,3.65,0,0,1,.32,2.11L233.55,86A3.58,3.58,0,0,1,235.49,85.14Z" transform="translate(-41.69 -42.1)"/><path class="cls-1" d="M141.61,279.19a4.54,4.54,0,0,0,.21-3.72,5.35,5.35,0,0,0-6.44-3.28,4.51,4.51,0,0,0-2.88,2.35,4,4,0,0,0-.08,3.83,9.69,9.69,0,0,0,2.16,2.54,7.93,7.93,0,0,1,1.61,1.77,1.66,1.66,0,0,1-.08,1.58,2,2,0,0,1-1.36,1.06,2.61,2.61,0,0,1-1.89-.23,2.57,2.57,0,0,1-1.29-1.39,2,2,0,0,1,.05-1.73l-2.31-1.18a4.48,4.48,0,0,0-.2,3.71,5.31,5.31,0,0,0,6.44,3.28,4.48,4.48,0,0,0,2.87-2.34,4.06,4.06,0,0,0,.09-3.88,10.24,10.24,0,0,0-2.18-2.55,8.22,8.22,0,0,1-1.62-1.82,1.62,1.62,0,0,1,.1-1.47,2,2,0,0,1,1.37-1.06,2.58,2.58,0,0,1,1.88.23,2.63,2.63,0,0,1,1.3,1.39,2,2,0,0,1-.06,1.73Z" transform="translate(-41.69 -42.1)"/><path class="cls-1" d="M149,281.23a5.84,5.84,0,0,0-4.7.24,6.29,6.29,0,0,0-3,8.27,5.82,5.82,0,0,0,3.45,3.2,6.13,6.13,0,0,0,5.73-.86l-1.66-2a3.27,3.27,0,0,1-3.19.41,3.42,3.42,0,0,1-2.25-3.59l8.9,3.23.36-1a6,6,0,0,0-.18-4.75A5.88,5.88,0,0,0,149,281.23Zm-4.83,3.51a3.65,3.65,0,0,1,1.79-1.17,3.52,3.52,0,0,1,3.86,1.4,3.72,3.72,0,0,1,.63,2Z" transform="translate(-41.69 -42.1)"/><rect class="cls-1" x="148.89" y="286.91" width="16.19" height="2.51" transform="matrix(0.25, -0.97, 0.97, 0.25, -203.17, 325.17)"/><path class="cls-1" d="M167.37,286a5.82,5.82,0,0,0-4.57,1.1,6,6,0,0,0-2.49,4.05,6.11,6.11,0,0,0,1.06,4.64,6,6,0,0,0,8.56,1.4,6,6,0,0,0,2.49-4.05,6.11,6.11,0,0,0-1.06-4.64A5.87,5.87,0,0,0,167.37,286Zm2.51,6.72a3.61,3.61,0,0,1-1.45,2.39,3.51,3.51,0,0,1-5-.81,3.77,3.77,0,0,1,.84-5.12,3.51,3.51,0,0,1,5,.81A3.61,3.61,0,0,1,169.88,292.75Z" transform="translate(-41.69 -42.1)"/><polygon class="cls-1" points="147.5 257.53 152.8 241.14 150.13 241.24 146.52 252.36 142.15 241.52 139.48 241.62 145.91 257.58 147.5 257.53"/><path class="cls-1" d="M197.73,297.31a5.86,5.86,0,0,0,4.57,1.14,6.18,6.18,0,0,0,4.59-3.52l-2.4-.93a3.24,3.24,0,0,1-2.59,1.9,3.4,3.4,0,0,1-2.13-.33,3.48,3.48,0,0,1-1.58-1.72l9.36-1.47-.16-1a6,6,0,0,0-2.46-4.07,6,6,0,0,0-8.57,1.34,6.29,6.29,0,0,0,1.37,8.7Zm1.11-7.66a3.42,3.42,0,0,1,1.92-1,3.5,3.5,0,0,1,2.13.34,3.61,3.61,0,0,1,1.53,1.49l-6.59,1A3.57,3.57,0,0,1,198.84,289.65Z" transform="translate(-41.69 -42.1)"/><path class="cls-1" d="M213.73,295.92,212.15,290a3.79,3.79,0,0,1,.22-2.68,2.86,2.86,0,0,1,1.87-1.59l1.22-.32-.65-2.44-1.23.33a5.18,5.18,0,0,0-2.74,1.79l-.26-1-2.44.65,3.16,11.8Z" transform="translate(-41.69 -42.1)"/><path class="cls-1" d="M220.94,292.09a6,6,0,0,0,7.6-2.23l.37,1,2.4-.92-5.82-15.12-2.4.93,1.82,4.71a6.06,6.06,0,0,0-7.13,3.46,6.29,6.29,0,0,0,3.16,8.21Zm-.82-7.17a3.49,3.49,0,0,1,4.7-1.81,3.73,3.73,0,0,1,1.87,4.83,3.5,3.5,0,0,1-4.71,1.81,3.76,3.76,0,0,1-1.86-4.83Z" transform="translate(-41.69 -42.1)"/><path class="cls-1" d="M235,286.17a6,6,0,0,0,7-2.73,6,6,0,0,0,.83-2.62l-2.57-.06a3.27,3.27,0,0,1-1.8,2.67,3.4,3.4,0,0,1-2.12.41,3.45,3.45,0,0,1-2.06-1.09l8.31-4.55-.51-.92a6.06,6.06,0,0,0-3.69-3,5.88,5.88,0,0,0-4.68.48,5.8,5.8,0,0,0-2.92,3.69,6.3,6.3,0,0,0,4.23,7.72Zm-1.55-7.59a3.37,3.37,0,0,1,1.47-1.56,3.42,3.42,0,0,1,2.12-.41,3.63,3.63,0,0,1,1.95.88l-5.85,3.21A3.61,3.61,0,0,1,233.46,278.58Z" transform="translate(-41.69 -42.1)"/><polygon class="cls-1" points="51.66 240.82 51.66 240.83 52.05 240.42 52.11 240.36 52.05 240.42 51.66 240.82"/><path class="cls-1" d="M322.63,200c-2.48-3.86-6.83-9.64-6.34-16h0c-1.05-9.32,13-16.52,7.21-26.29-2.78-4-7.43-6.13-11.43-10.76a34.56,34.56,0,0,1-2.95-5.61,15.23,15.23,0,0,1-.7-3.49c3.5-30.18,5.41-17.76-17.92-32.62-.61-.68-2.09-2.1-2.09-2.1a19.18,19.18,0,0,1-3-6.17c-1.3-4.45-.51-8.46-2-13.77-4.06-10.84-17.08-5-27-9.53-9.75-5.51-7.12-24.85-23-19.8-4.42,1.49-10.36,3.35-16.77,2.31a16.57,16.57,0,0,1-6.25-3.12c-2.48-1.8-4.23-4-6.77-6.79-1.74-1.66-3.66-3.54-6.62-4.1-7-.94-12.09,7.3-19.2,9.53a17.06,17.06,0,0,1-4.56.93c-4.84.58-10.9-2.47-15.49-5.19-1.74-.9-4.62-2.21-7.68-1.74-8.47,2.06-10.74,13.11-18.92,17.54-9.85,5-25-7.32-29.18,8.49-1.26,4.73-2.22,11.94-7.23,15.3-7,7.47-21.08,1.88-24.41,12.58-1.21,6.45,1.6,14-2.35,21.7-2.3,4.53-7.43,7.53-12.83,10.19-2,1.28-4.31,2.66-5.59,5.4a9.64,9.64,0,0,0-.58,4.36c.46,4.36,3.74,9.23,5,14.9a16.62,16.62,0,0,1-.08,6.41c-.6,9.46-15.76,14.69-11.44,24.9,2.81,6.05,8.15,10.22,11.45,18.47,2.62,9.22-10,18.69-2.85,27.32C55.73,237.62,64,240,68,247.07c2.54,4.46,2.25,10.12,1.53,16.31-.22,3.46.45,8.41,4.8,10.49a26.63,26.63,0,0,0,7.06,2,34.36,34.36,0,0,1,8.12,2,15.89,15.89,0,0,1,5.28,3.55C100,285.89,100,293.7,103,300.22c5.94,10.21,18.51.09,28.26,5,5.75,2.57,8.52,8.21,12.37,13.65a12.06,12.06,0,0,0,4.67,3.44c8.06,2.19,15.34-8.35,25-6.49,8.24.06,13.21,9.59,21.69,10.62,8.16-.24,12.65-11.45,21.7-14.15,6.42-2,13.28,2.31,20.23,3.4,11.73.66,9.78-16.67,19.63-20.94,5.06-3.32,11.56-2.7,18.17-2.91a12.07,12.07,0,0,0,5.42-2c5.37-5.43,2.93-11.79,5.24-19a32.18,32.18,0,0,1,3.09-5.54,15.5,15.5,0,0,1,2.53-2.5c7.72-6.53,22.61-4.12,19.08-18.74-1-5.68-.9-17-.9-17,2.21-6.73,8.8-9.61,14-15.09a8.94,8.94,0,0,0,1.83-5.49A16.91,16.91,0,0,0,322.63,200ZM131.29,260.73c7.08,4.16,31.07,17.11,55.21,17.11s45.84-10.58,52.23-14l14,20.61c-6.69,4.53-32.24,20-68.19,20-36.23,0-60.06-16.42-65.91-20.92Zm117,9.2-8.17-12.07-1.83,1.06c-.25.15-25,14.39-51.8,14.39s-54.56-17.47-54.83-17.64l-2-1.29-8.91,16a107,107,0,0,1,2.58-174.19l7.25,10.71,1.83-1.07c.25-.14,25-14.38,51.8-14.38S238.75,109,239,109.13l2,1.29,6.79-12.22a107,107,0,0,1,.46,171.73Zm-8.9-165.86C232.32,99.91,208.33,87,184.19,87s-45.84,10.57-52.23,14L118,80.33c6.69-4.53,32.24-20,68.19-20,36.23,0,60.06,16.42,65.91,20.92Z" transform="translate(-41.69 -42.1)"/></svg>