<?xml version="1.0" encoding="utf-8"?>
<!-- Generator: Adobe Illustrator 24.3.0, SVG Export Plug-In . SVG Version: 6.00 Build 0)  -->
<svg version="1.1" id="Camada_1" xmlns="http://www.w3.org/2000/svg" xmlns:xlink="http://www.w3.org/1999/xlink" x="0px" y="0px"
	 viewBox="0 0 1080 1080" style="enable-background:new 0 0 1080 1080;" xml:space="preserve">
<g>
	<path d="M557.06,376.68c0-66.51,0-132.96,0-199.49c95.03,0,284.96,0,284.96,0l-0.89,113.14l-56.78,0.44v-56.34
		c0,0-105.37,0-152.51,0.1c-5.54,0.01-11.08,0-17.57,0c0,28.52,0,57.34,0,85.5c3.57,0.39,226.43,0.01,226.43,0.01
		s1.13,131.39,1.03,193.67c0,1.93-0.59,3.87-1.08,6.86c-94.63,0-189.01,0-284.25,0c0-36.23,0-72.86,0-110.67
		c17.96,0,36.15,0,56.58,0c0,16.97,0,34.42,0,52.95c17.24,0,32.27-0.02,47.3,0c38.31,0.05,124.23-0.48,124.23-0.48l0.1-84.89
		c0,0-140.91-0.69-207.16-0.8C571.15,376.67,564.88,376.68,557.06,376.68z"/>
	<path d="M327.11,461.5c0-23.29,0.8-140.46,0.8-140.46l53.07,0.5L381,462l57.73-0.25l0.23-283.24l57.24-1.73
		c0,0-0.54,341.73-1.05,344.46c-8.17,0-284.26-0.65-284.26-0.65l-0.19-342.28l57.4-0.81l0.15,284.75
		C268.25,462.25,323.37,462.48,327.11,461.5z"/>
</g>
<g>
	<path d="M354.87,758c-3.82-0.71-7.68-1.25-11.46-2.15c-23-5.5-39.9-24.12-42.94-47.53c-2.13-16.4,0.33-31.89,10.43-45.52
		c9.18-12.38,21.61-19.56,36.67-22.16c13.14-2.27,26.12-1.48,38.39,4.06c19.18,8.66,30.39,23.61,33.28,44.44
		c1.89,13.65,0.39,26.94-6.57,39.16c-9.2,16.16-23.2,25.49-41.45,28.61c-2.12,0.36-4.23,0.72-6.35,1.09
		C361.53,758,358.2,758,354.87,758z M320.46,698.37c0.12,2.16,0.1,4.34,0.38,6.48c2.8,21.46,19.06,34.6,38.05,35.01
		c16.68,0.36,31.33-8.72,37.22-24.15c4.02-10.55,4.18-21.34,0.79-32.04c-3.42-10.8-10.37-18.71-20.93-23.08
		c-6.55-2.71-13.4-3.59-20.52-2.8c-14.12,1.56-24.4,8.54-30.74,21.26C321.66,685.11,320.57,691.64,320.46,698.37z"/>
	<path d="M799.39,758c-1.53-0.3-3.07-0.58-4.6-0.9c-9.05-1.84-15.78-6.95-20.24-14.91c-2.5-4.48-5.13-14.34-5.13-14.34l15.75-2.66
		c0,0,0.58,3.12,1.1,4.54c2.13,5.8,6.27,8.73,12.17,9.75c6,1.04,11.94,0.92,17.78-0.87c8.09-2.48,12.56-10.68,10.16-18.75
		c-1.46-4.91-5.34-7.57-9.84-9.23c-5.61-2.08-11.38-3.74-17.01-5.76c-5.32-1.9-10.69-3.74-15.8-6.13
		c-9.81-4.6-14.26-12.84-14.67-23.43c-0.26-6.56,0.89-12.94,3-19.13c0.53-1.55,1.31-3.14,2.38-4.36
		c6.23-7.09,13.11-13.39,22.71-15.45c14.13-3.04,30.6,1.68,40.32,14.42c4.96,6.73,4.23,17.1,4.23,18.54c-5.39,0-17.31,0-17.31,0
		s-0.05-1.66-0.21-2.67c-1.05-6.64-6.36-10.61-12.48-11.35c-4.93-0.6-9.91-1.25-14.47,1.05c-2.75,1.39-5.37,3.37-7.48,5.61
		c-4.64,4.91-3.22,15.16,2.41,18.86c8.09,5.32,16.86,8.93,26.03,11.8c3.56,1.11,7.1,2.49,10.39,4.23
		c8.98,4.78,13.62,12.52,14.07,22.59c0.19,4.21,0.13,8.56-0.75,12.65c-2.91,13.38-11.91,20.87-24.76,24.22
		c-2.71,0.71-5.5,1.11-8.25,1.66C805.72,758,802.56,758,799.39,758z"/>
	<path d="M544.35,756.28c-6.27,0-12.17,0-18.29,0c-8.03-24.03-16.05-48.04-24.06-72.04c-0.24-0.03-0.48-0.07-0.72-0.1
		c-8.2,24.03-16.4,48.06-24.62,72.13c-5.65,0-11.13,0-16.94,0c-12.69-38.37-25.41-76.81-38.2-115.47c6.62,0,12.91,0,19.39,0
		c9.12,28.74,18.22,57.44,27.32,86.13c0.23,0,0.46-0.01,0.69-0.01c8.51-25.05,17.01-50.11,25.54-75.24c4.97,0,9.78,0,14.87,0
		c8.71,25.08,17.44,50.2,26.17,75.31c0.26-0.01,0.52-0.02,0.78-0.03c8.62-28.73,17.23-57.46,25.84-86.15c6.3,0,12.35,0,18.76,0
		C568.65,679.41,556.52,717.78,544.35,756.28z"/>
	<path d="M699.7,706.96c-34.35,0-66.13,0-100.08,0c-0.37,9.11,9.81,24.34,23.49,30.69c15.39,7.16,39.31,7.66,55.74-15.1
		c4.1,2.9,8.2,5.8,12.3,8.7c-0.27,0.61-0.34,0.95-0.54,1.2c-5.7,7.34-12,14.12-19.9,19.12c-5.16,3.27-11.2,4.3-17.17,4.71
		c-7.38,0.5-14.81,0.72-22.21,0.5c-9.9-0.29-18.57-4.44-26.36-10.23c-13.28-9.88-21.07-23.13-23.02-39.63
		c-1.27-10.78-0.59-21.5,2.8-31.82c6.65-20.21,21.05-32.11,41.41-36.86c13.27-3.09,26.49-2.2,39.19,3.03
		c16.52,6.8,25.66,19.21,31.48,35.65c3.05,8.61,3.8,17.76,3.2,26.99C699.98,704.79,699.85,705.68,699.7,706.96z M600.26,687.92
		c27.77,0,53.18,0,80.79,0c-1.4-17.8-20.78-34.44-40.98-33.53C620.83,655.25,599.91,672.74,600.26,687.92z"/>
	<path d="M272.86,756.26c-7.31,0-14.12,0-21.26,0c0-47.33,0-94.6,0-142.22c-13.11,0-25.89,0-38.87,0c0-6.27,0-12.2,0-18.31
		c32.94,0,65.81,0,98.84,0c0,6,0,11.87,0,18.08c-12.81,0-25.6,0-38.7,0C272.86,661.42,272.86,708.69,272.86,756.26z"/>
	<path d="M731.26,756.28c-6.89,0-13.37,0-20.15,0c-0.08-0.92-0.21-1.79-0.21-2.66c-0.01-32.49-0.09-114.86-0.09-114.86l19.6,0.24
		c0,0,0.49,7.66,0.49,12c11.52-6.48,21.74-14.5,35.67-14.51l-0.06,17.7c-3.41,0.89-7.06,1.55-10.18,2.6
		c-13.07,4.38-20.94,13.46-23.52,26.93c-0.92,4.79-1.43,9.73-1.48,14.61c-0.17,18.24-0.07,36.49-0.07,54.73
		C731.26,754.05,731.26,755.03,731.26,756.28z"/>
</g>
<g>
	<path d="M367.81,878.45c0.16-1.44,0.41-2.9,0.74-4.38c1.89-8.47,6.48-16.26,13.76-23.38c7.28-7.11,16.96-10.67,29.05-10.67
		c1.48,0,2.96,0.06,4.44,0.19s2.96,0.35,4.44,0.68c8.47,1.56,16.29,5.86,23.44,12.89c7.16,7.03,10.94,17.99,11.35,32.88
		c0,12.67-3.89,23.75-11.66,33.25c-7.77,9.5-19.43,14.25-34.98,14.25c-13.57,0-23.77-4.81-30.6-14.43
		c-6.83-9.62-10.24-21.96-10.24-37.01C367.56,881.31,367.64,879.89,367.81,878.45z M380.15,895.17c0.41,2.39,1.07,4.81,1.97,7.28
		c1.73,4.93,4.6,9.52,8.64,13.76c4.03,4.24,9.91,6.68,17.64,7.34c0.57,0.08,1.13,0.14,1.67,0.19c0.53,0.04,1.09,0.06,1.67,0.06
		c8.14,0,15.42-3.47,21.84-10.42c6.42-6.95,9.38-17.5,8.88-31.65c-0.49-8.22-3.5-15.46-9.01-21.71c-5.51-6.25-12.87-9.38-22.08-9.38
		c-1.07,0-2.14,0.06-3.21,0.19c-1.07,0.12-2.14,0.31-3.21,0.55c-6.42,1.32-12.3,4.93-17.64,10.86c-5.35,5.92-8.02,14.72-8.02,26.4
		C379.45,890.6,379.73,892.78,380.15,895.17z"/>
	<path d="M516.31,849.7c1.51-0.78,3.14-1.13,4.92-1.05c0.27,0,0.55,0,0.86,0c0.31,0,0.6,0,0.86,0c0.35,0.08,0.71,0.12,1.06,0.12
		c0.35,0,0.71,0,1.06,0v-8.76c-1.15-0.16-2.28-0.31-3.39-0.43c-1.11-0.12-2.24-0.18-3.39-0.18c-4.34,0-8.02,1.21-11.03,3.64
		c-3.01,2.43-4.74,6.93-5.18,13.51c0,0.91,0,1.69,0,2.34c0,0.66,0,1.28,0,1.85c0,0.66,0,1.34,0,2.04c0,0.7,0,1.54,0,2.53h-8.7h-0.74
		h-10.83v-9.75c0.35-3.12,1.28-5.08,2.79-5.86c1.51-0.78,3.14-1.13,4.92-1.05c0.27,0,0.55,0,0.86,0c0.31,0,0.6,0,0.86,0
		c0.35,0.08,0.71,0.12,1.06,0.12c0.35,0,0.71,0,1.06,0v-8.76c-1.15-0.16-2.28-0.31-3.39-0.43c-1.11-0.12-2.24-0.18-3.39-0.18
		c-4.34,0-8.02,1.21-11.03,3.64c-3.01,2.43-4.74,6.93-5.18,13.51c0,0.91,0,1.69,0,2.34c0,0.66,0,1.28,0,1.85c0,0.66,0,1.34,0,2.04
		c0,0.7,0,1.54,0,2.53h-9.44v9.62h9.44v56.38h11.43v-56.38h10.83h0.74h8.7v56.38h11.43v-56.38h11.56v-9.62h-11.56v-9.75
		C513.87,852.44,514.8,850.49,516.31,849.7z"/>
	<path d="M536.13,841h10.73v13.57h-10.73V841z M536.13,866.17h10.73v65.14h-10.73V866.17z"/>
	<path d="M568.88,872.65c4.89-5.06,11.45-7.83,19.68-8.33c1.48,0,3.08,0.12,4.81,0.37c1.73,0.25,3.54,0.7,5.43,1.36
		c3.62,1.32,7.01,3.7,10.18,7.16c3.17,3.45,5.08,8.6,5.74,15.42H604.1c-0.58-4.69-2.26-8.18-5.06-10.49
		c-2.8-2.3-5.88-3.45-9.25-3.45c-0.41,0-0.84,0.02-1.3,0.06c-0.45,0.04-0.88,0.1-1.29,0.19c-4.44,0.74-8.47,3.31-12.09,7.71
		c-3.62,4.4-5.3,10.59-5.06,18.57c0.25,8.23,2.12,14.19,5.61,17.89c3.5,3.7,7.3,5.59,11.41,5.67c0.08,0,0.14,0,0.19,0
		c0.04,0,0.1,0,0.18,0c4.11,0,7.85-1.44,11.23-4.32c3.37-2.88,5.18-6.7,5.43-11.47h10.61c0,7.73-2.57,13.9-7.71,18.51
		c-5.14,4.6-11.62,7.11-19.43,7.53c-0.91-0.08-1.85-0.17-2.84-0.25c-0.99-0.08-1.97-0.25-2.96-0.49c-6-1.15-11.45-4.48-16.35-9.99
		c-4.89-5.51-6.93-15.79-6.11-30.84C560.8,884.64,563.99,877.71,568.88,872.65z"/>
	<path d="M631,873.64c4.69-6.21,11.88-9.31,21.59-9.31c10.03,0,17.07,2.94,21.1,8.82c4.03,5.88,6.54,12.32,7.53,19.31
		c0.25,1.81,0.41,3.62,0.49,5.43c0.08,1.81,0.12,3.58,0.12,5.3h-47.62c0.25,7.4,2.04,12.75,5.37,16.04
		c3.33,3.29,7.01,4.94,11.04,4.94c0.16,0,0.35,0,0.55,0c0.21,0,0.39,0,0.56,0c3.62-0.25,7.05-1.52,10.3-3.83
		c3.25-2.3,5.61-5.43,7.09-9.38h10.73c-0.49,6.75-3.21,12.01-8.14,15.79c-4.93,3.78-11.31,5.92-19.12,6.42
		c-9.38-0.33-16.29-2.9-20.73-7.71s-7.28-10.09-8.51-15.85c-0.49-1.97-0.8-3.93-0.92-5.86c-0.12-1.93-0.1-3.76,0.06-5.49
		C623.47,888.05,626.31,879.85,631,873.64z M670.11,893.44c-0.49-6.58-2.43-11.58-5.8-14.99c-3.37-3.41-7.12-5.12-11.23-5.12
		c-0.17,0-0.33,0-0.49,0c-0.17,0-0.33,0-0.49,0c-3.87,0.25-7.53,2.04-10.98,5.37c-3.45,3.33-5.76,8.25-6.91,14.74H670.11z"/>
</g>
<g>
	<path d="M827.87,432.84"/>
	<g>
		<path d="M827.87,435.34c3.22,0,3.22-5,0-5C824.65,430.34,824.64,435.34,827.87,435.34L827.87,435.34z"/>
	</g>
</g>
<g>
	<path d="M827.87,432.84"/>
	<g>
		<path d="M827.87,435.34c3.22,0,3.22-5,0-5C824.65,430.34,824.64,435.34,827.87,435.34L827.87,435.34z"/>
	</g>
</g>
</svg>
